<svg width="277" height="407" viewBox="0 0 277 407" fill="none" xmlns="http://www.w3.org/2000/svg">
<g filter="url(#filter0_f_1_531)">
<ellipse cx="134.5" cy="365.5" rx="63.5" ry="3.5" fill="#CFD1EE" fill-opacity="0.62"/>
</g>
<g clip-path="url(#clip0_1_531)">
<path d="M201.355 136.672C197.225 136.891 191.159 137.55 186.92 138.281C175.628 140.183 159.293 145.486 155.639 148.485C154.725 149.253 154.652 149.253 151.436 148.704C146.101 147.79 141.935 147.644 136.198 148.119L130.826 148.595L128.633 147.424C121.398 143.548 102.724 138.427 91.0665 137.111C88.6181 136.855 83.2096 136.745 75.5355 136.855C64.7186 137.038 63.3665 137.111 58.6524 138.025C49.1145 139.854 39.7228 142.706 33.3643 145.778C30.1119 147.351 28.504 148.704 28.504 149.948C28.504 150.899 27.4808 151.63 23.936 153.093C22.1089 153.861 20.5375 154.629 20.3913 154.848C19.9162 155.543 20.5375 158.762 21.5607 160.883C22.5839 163.004 24.1553 164.613 26.2748 165.747C27.9558 166.661 28.4674 168.271 28.8694 174.159C30.2946 194.749 36.4339 210.475 45.6063 217.241C50.4301 220.789 58.8351 224.336 66.1438 225.909C68.6653 226.458 70.8945 226.567 78.2032 226.567C86.5351 226.531 87.4852 226.458 92.0897 225.507C101.956 223.459 108.79 220.752 112.518 217.351C121.325 209.415 125.966 193.469 127.902 164.613C128.341 157.738 128.67 156.348 130.022 155.653C131.886 154.702 136.856 154.227 142.849 154.446C150.815 154.739 156.224 156.055 156.918 157.884C157.174 158.506 157.32 160.078 158.234 171.526C160.097 194.859 164.848 209.451 173.107 217.278C176.396 220.423 181.841 222.837 189.88 224.739C198.139 226.714 210.016 227.335 217.434 226.202C226.168 224.885 235.45 221.082 241.114 216.473C248.715 210.329 254.635 195.554 256.353 178.438C257.486 166.954 257.486 167.064 258.436 166.369C258.874 166.003 259.569 165.674 259.898 165.674C260.994 165.674 263.333 163.224 264.21 161.176C264.794 159.896 265.087 158.506 265.087 156.897L265.123 154.519L263.296 153.532C262.31 152.983 260.738 152.362 259.825 152.179C258.107 151.813 257.376 151.082 256.718 149.07C256.389 148.119 255.695 147.607 252.15 145.852C238.922 139.232 219.371 135.684 201.355 136.672ZM88.2527 144.864C93.4418 145.23 100.604 146.437 105.611 147.79C110.8 149.18 119.388 152.215 120.374 152.983C121.105 153.605 121.471 154.446 121.946 156.531C122.494 158.835 122.604 161.395 122.604 172.623C122.604 186.85 122.421 189.373 120.703 196.578C118.547 205.721 115.295 212.158 110.69 216.29C104.405 221.959 87.1929 226.129 74.9874 224.995C61.1374 223.678 49.3703 218.448 43.8888 211.134C39.1016 204.734 35.8127 195.115 34.6798 184.363C34.1682 179.572 34.424 162.638 35.0818 158.542C35.7761 153.971 35.8127 153.898 39.3939 152.215C46.8854 148.668 57.7753 145.669 66.5093 144.718C69.3962 144.389 83.502 144.498 88.2527 144.864ZM223.646 145.888C232.6 147.607 239.872 149.765 245.463 152.325C247.29 153.203 248.971 154.227 249.19 154.629C250.469 157.043 251.164 175.768 250.323 184.875C249.044 198.37 244.549 208.72 237.35 214.754C233.038 218.412 224.889 222.106 217.799 223.642C213.999 224.446 202.817 224.775 198.249 224.19C190.611 223.239 182.133 220.643 178.113 218.009C171.133 213.511 166.346 204.222 164.227 191.092C163.423 186.191 163.13 169.075 163.679 162.2C164.19 156.311 164.629 154.263 165.542 153.422C167.077 152.032 180.05 148.156 189.259 146.29C195.033 145.12 198.833 144.864 209.577 144.974C217.909 145.084 220.102 145.23 223.646 145.888Z" fill="white"/>
<path d="M171.024 0.5486C166.31 1.60921 146.869 5.52248 140.327 6.72937C129.949 8.63115 124.212 9.39918 116.208 10.0575C105.611 10.8987 98.2291 12.069 88.7277 14.4828C68.0806 19.6029 53.2074 27.5392 47.397 36.3898C46.4834 37.8161 45.6064 38.5476 43.231 39.8642C34.9356 44.3992 29.3445 50.5068 24.8131 59.7963C21.2684 67.1108 19.2585 74.4253 18.1256 84.4828C17.0659 93.3699 17.3948 112.461 18.8565 132.027C19.4412 139.781 20.7568 153.678 20.9395 153.861C21.1587 154.044 26.3845 151.85 27.298 151.191C27.8097 150.789 28.3213 149.948 28.4309 149.216C28.6867 148.009 28.9425 147.827 33.0719 145.742C39.7959 142.341 49.7723 139.305 60.1141 137.477C64.4628 136.672 65.9246 136.635 77.8378 136.599C90.4818 136.599 90.9569 136.635 96.6577 137.623C108.169 139.671 122.567 143.913 128.487 146.985C131.118 148.339 131.228 148.339 133.457 148.046C137.623 147.424 146.393 147.571 150.779 148.302L154.835 148.96L156.297 147.79C160.17 144.681 177.967 139.232 189.88 137.513C211.733 134.368 234.683 137.22 251.639 145.157C255.512 146.985 256.901 147.973 256.901 148.924C256.901 149.326 257.522 150.24 258.253 150.972L259.605 152.325L260.08 150.679C262.858 141.536 267.024 122.811 268.741 111.547C271.482 93.8819 271.665 91.2853 271.665 72.4138C271.665 53.4326 271.445 50.3971 269.326 38.5476C266.658 23.8088 260.227 4.86417 257.742 4.31558C256.463 4.023 255.001 4.75445 249.665 8.33857C237.679 16.4211 227.739 21.3584 218.75 23.7722L214.766 24.8328L218.603 20.9196C222.696 16.7503 224.45 14.2999 226.46 10.0209C228.068 6.47337 228.068 5.04703 226.424 4.023L225.145 3.25497L218.64 5.77849C199.382 13.2393 183.302 17.372 166.748 19.2006C158.38 20.0784 158.489 20.1515 163.423 17.2257C171.06 12.7273 176.469 8.00942 178.004 4.57159C178.844 2.66981 178.698 0.950899 177.602 0.365737C176.688 -0.109707 173.509 -0.0365617 171.024 0.5486Z" fill="#444444"/>
<path d="M122.092 186.338C120.886 198.297 117.561 207.915 112.554 213.877C109.009 218.083 104.697 220.387 96.2922 222.544L122.092 186.338ZM122.092 186.338C123.006 177.121 122.494 158.652 121.215 154.775L122.092 186.338ZM64.6189 144.734L64.6193 144.734C66.3923 144.51 71.1494 144.392 76.1055 144.382C81.0712 144.373 86.297 144.474 89.0239 144.695L89.0248 144.695C96.5614 145.321 103.579 146.793 112.525 149.691C115.915 150.786 118.031 151.539 119.367 152.233C120.041 152.584 120.544 152.932 120.919 153.324C121.3 153.722 121.532 154.145 121.689 154.617L121.69 154.619C122.03 155.651 122.305 157.588 122.518 160.002C122.733 162.436 122.888 165.407 122.975 168.54C123.149 174.803 123.049 181.748 122.589 186.387L122.589 186.388C121.379 198.396 118.035 208.128 112.937 214.198L112.936 214.199C109.296 218.518 104.869 220.859 96.417 223.029C83.5818 226.341 71.786 226.089 60.7902 222.249C53.3166 219.651 47.9172 216.344 43.9072 211.408C39.9033 206.479 37.3231 199.973 35.397 191.051L35.3965 191.049C34.9202 188.794 34.6671 187.539 34.5369 185.297C34.408 183.075 34.399 179.875 34.399 173.72C34.399 167.21 34.4902 162.804 34.7249 159.802C34.9573 156.828 35.3342 155.135 35.9772 154.139L35.9803 154.134C36.2506 153.725 36.7729 153.321 37.4104 152.928C38.0661 152.524 38.9094 152.094 39.8917 151.65C41.8577 150.763 44.4182 149.807 47.2332 148.892C52.8603 147.062 59.5526 145.379 64.6189 144.734Z" fill="#D0FAF9" fill-opacity="0.85" stroke="white"/>
<path d="M250.492 185.287C249.316 197.83 244.498 209.059 237.819 214.698L237.819 214.698C233.586 218.265 226.791 221.587 220.628 223.175L220.627 223.175C215.523 224.471 211.563 224.8 203.717 224.58C197.641 224.434 195.699 224.25 192.432 223.47C183.041 221.23 178.258 219.008 174.107 214.89L174.104 214.887C168.73 209.472 165.125 200.311 163.803 188.736C163.288 184.404 163.115 177.182 163.224 170.484C163.279 167.132 163.405 163.901 163.595 161.22C163.785 158.557 164.04 156.395 164.364 155.198C164.471 154.772 164.677 154.323 164.918 153.942C165.152 153.571 165.455 153.206 165.785 153.001C166.671 152.421 168.465 151.703 170.723 150.944C173.006 150.176 175.822 149.348 178.789 148.559C184.716 146.985 191.286 145.56 195.453 145.099L195.455 145.098L249.994 185.24M250.492 185.287L249.994 185.24M250.492 185.287C250.492 185.287 250.492 185.287 250.492 185.287L249.994 185.24M250.492 185.287C250.751 182.531 250.805 176.489 250.718 170.677C250.632 164.875 250.404 159.219 250.086 157.256L250.085 157.252C249.976 156.606 249.887 156.098 249.79 155.692C249.692 155.285 249.58 154.951 249.413 154.662C249.076 154.081 248.557 153.772 247.838 153.343L247.802 153.322L247.799 153.32C243.489 150.791 235.276 148.072 225.943 146.094M249.994 185.24C250.506 179.791 250.214 161.176 249.592 157.335C249.154 154.739 249.081 154.666 247.546 153.751C243.307 151.264 235.158 148.558 225.839 146.583M225.943 146.094L225.839 146.583M225.943 146.094C225.943 146.094 225.943 146.094 225.943 146.094L225.839 146.583M225.943 146.094C223.365 145.545 221.93 145.255 219.801 145.097C217.688 144.94 214.891 144.913 209.582 144.876C209.582 144.876 209.581 144.876 209.581 144.876L209.577 145.376C220.211 145.449 220.686 145.486 225.839 146.583" fill="#B2D6D7" stroke="white"/>
<path d="M132.872 155.105C130.607 155.434 129.51 156.129 128.962 157.555C128.779 158.03 128.377 161.907 128.085 166.149C126.075 193.872 121.69 208.976 113.212 217.095C110.508 219.692 107.401 221.374 101.92 223.203C91.3589 226.75 79.4822 227.957 68.9577 226.567C59.2371 225.287 48.7856 220.862 43.231 215.669C35.228 208.135 29.8926 193.03 28.504 173.793C28.0655 167.832 27.7 166.735 25.6536 165.711C23.6437 164.687 21.9992 162.821 21.2684 160.81C20.5375 158.798 20.0624 158.542 16.5908 158.579C9.57443 158.616 3.72746 166.479 1.02324 179.572C0.109654 184.07 -0.292325 196.066 0.328915 201.552C2.22918 218.339 8.8801 234.431 17.1024 242.184C22.9494 247.67 29.2349 249.572 35.4107 247.633C36.6532 247.268 37.713 247.048 37.786 247.194C37.8591 247.304 38.0418 248.401 38.188 249.608C38.5535 252.717 41.8789 270.93 42.9752 275.831C43.4868 278.098 44.1446 280.366 44.4735 280.878C45.6064 282.597 85.6946 322.497 91.7243 327.874C103.491 338.407 109.813 343.088 116.647 346.343C121.069 348.464 123.334 349.086 128.268 349.634C134.151 350.293 143.287 349.195 149.682 347.074C157.247 344.551 172.668 332.957 196.568 311.818C206.361 303.151 216.265 294.154 221.344 289.253L225.474 285.34L226.972 279.89C228.763 273.307 231.284 262.921 232.563 256.74C233.111 254.216 233.586 251.949 233.696 251.693C233.806 251.364 234.39 251.547 235.779 252.315C243.49 256.63 251.895 254.619 259.423 246.646C265.233 240.538 270.824 229.64 273.857 218.631C276.196 210.146 276.781 205.611 276.817 196.578C276.817 188.093 276.598 186.008 274.954 180.413C272.578 172.147 268.23 166.735 263.187 165.637C261.506 165.308 261.104 165.345 259.678 166.04C258.801 166.442 257.961 167.064 257.851 167.393C257.705 167.686 257.376 170.831 257.084 174.342C255.988 187.215 253.831 196.432 249.958 204.66C245.828 213.438 242.028 217.315 233.477 221.447C224.377 225.799 219.188 226.897 208.115 226.933C199.528 226.933 195.581 226.494 188.492 224.702C180.598 222.727 176.25 220.679 172.741 217.278C164.592 209.451 159.988 195.334 158.051 172.44C157.758 168.819 157.357 164.175 157.174 162.09C156.991 159.969 156.626 158.067 156.333 157.738C154.798 155.873 148.513 154.702 140.51 154.739C137.513 154.775 134.042 154.922 132.872 155.105Z" fill="#CC9C8C"/>
<mask id="path-7-inside-1_1_531" fill="white">
<path d="M256.96 204.256C257.068 203.714 257.603 203.354 258.106 203.583C258.607 203.811 259.077 204.135 259.506 204.551C260.197 205.219 260.766 206.109 261.179 207.169C261.592 208.228 261.842 209.436 261.913 210.721C261.984 212.006 261.876 213.342 261.594 214.652C261.312 215.961 260.862 217.217 260.271 218.347C259.68 219.476 258.96 220.456 258.152 221.229C257.344 222.001 256.465 222.552 255.567 222.847C254.998 223.034 254.429 223.117 253.872 223.094C253.334 223.072 253.016 222.534 253.137 222.009L253.97 218.383C254.097 217.83 254.68 217.511 255.227 217.363C255.266 217.352 255.305 217.341 255.343 217.328C255.731 217.2 256.11 216.963 256.458 216.63C256.806 216.297 257.117 215.874 257.372 215.387C257.627 214.9 257.82 214.359 257.942 213.794C258.064 213.229 258.11 212.653 258.08 212.099C258.049 211.545 257.941 211.024 257.763 210.567C257.585 210.111 257.34 209.727 257.042 209.438C257.001 209.399 256.959 209.361 256.917 209.325C256.493 208.97 256.117 208.45 256.226 207.908L256.96 204.256Z"/>
</mask>
<path d="M256.96 204.256C257.068 203.714 257.603 203.354 258.106 203.583C258.607 203.811 259.077 204.135 259.506 204.551C260.197 205.219 260.766 206.109 261.179 207.169C261.592 208.228 261.842 209.436 261.913 210.721C261.984 212.006 261.876 213.342 261.594 214.652C261.312 215.961 260.862 217.217 260.271 218.347C259.68 219.476 258.96 220.456 258.152 221.229C257.344 222.001 256.465 222.552 255.567 222.847C254.998 223.034 254.429 223.117 253.872 223.094C253.334 223.072 253.016 222.534 253.137 222.009L253.97 218.383C254.097 217.83 254.68 217.511 255.227 217.363C255.266 217.352 255.305 217.341 255.343 217.328C255.731 217.2 256.11 216.963 256.458 216.63C256.806 216.297 257.117 215.874 257.372 215.387C257.627 214.9 257.82 214.359 257.942 213.794C258.064 213.229 258.11 212.653 258.08 212.099C258.049 211.545 257.941 211.024 257.763 210.567C257.585 210.111 257.34 209.727 257.042 209.438C257.001 209.399 256.959 209.361 256.917 209.325C256.493 208.97 256.117 208.45 256.226 207.908L256.96 204.256Z" fill="#D3C2B8" stroke="#F2E0D5" stroke-width="2" mask="url(#path-7-inside-1_1_531)"/>
<mask id="path-8-inside-2_1_531" fill="white">
<path d="M22.7531 201.771C22.6443 201.23 22.1097 200.87 21.6069 201.099C21.1058 201.327 20.6352 201.651 20.2063 202.066C19.5156 202.735 18.9469 203.625 18.5336 204.685C18.1204 205.744 17.8708 206.952 17.7995 208.237C17.7283 209.522 17.8368 210.858 18.1188 212.167C18.4007 213.477 18.8503 214.733 19.4414 215.863C20.0324 216.992 20.7529 217.972 21.5607 218.744C22.3685 219.517 23.2472 220.067 24.1455 220.363C24.7145 220.55 25.284 220.632 25.8407 220.61C26.3783 220.588 26.6964 220.049 26.5759 219.525L25.7426 215.898C25.6158 215.346 25.0322 215.026 24.4853 214.878C24.4467 214.868 24.408 214.856 24.3693 214.844C23.982 214.716 23.6031 214.479 23.2548 214.146C22.9065 213.813 22.5958 213.39 22.3409 212.903C22.0861 212.416 21.8922 211.874 21.7706 211.31C21.6491 210.745 21.6023 210.169 21.633 209.615C21.6637 209.061 21.7713 208.54 21.9495 208.083C22.1277 207.626 22.3729 207.243 22.6708 206.954C22.7117 206.915 22.7535 206.877 22.7961 206.841C23.2193 206.486 23.5958 205.965 23.487 205.424L22.7531 201.771Z"/>
</mask>
<path d="M22.7531 201.771C22.6443 201.23 22.1097 200.87 21.6069 201.099C21.1058 201.327 20.6352 201.651 20.2063 202.066C19.5156 202.735 18.9469 203.625 18.5336 204.685C18.1204 205.744 17.8708 206.952 17.7995 208.237C17.7283 209.522 17.8368 210.858 18.1188 212.167C18.4007 213.477 18.8503 214.733 19.4414 215.863C20.0324 216.992 20.7529 217.972 21.5607 218.744C22.3685 219.517 23.2472 220.067 24.1455 220.363C24.7145 220.55 25.284 220.632 25.8407 220.61C26.3783 220.588 26.6964 220.049 26.5759 219.525L25.7426 215.898C25.6158 215.346 25.0322 215.026 24.4853 214.878C24.4467 214.868 24.408 214.856 24.3693 214.844C23.982 214.716 23.6031 214.479 23.2548 214.146C22.9065 213.813 22.5958 213.39 22.3409 212.903C22.0861 212.416 21.8922 211.874 21.7706 211.31C21.6491 210.745 21.6023 210.169 21.633 209.615C21.6637 209.061 21.7713 208.54 21.9495 208.083C22.1277 207.626 22.3729 207.243 22.6708 206.954C22.7117 206.915 22.7535 206.877 22.7961 206.841C23.2193 206.486 23.5958 205.965 23.487 205.424L22.7531 201.771Z" fill="#D3C2B8" stroke="#F2E0D5" stroke-width="2" mask="url(#path-8-inside-2_1_531)"/>
<path d="M134.768 312.118C118.844 311.403 106.716 297.749 102.842 292.821C102.311 292.146 102.857 291.216 103.711 291.306C109.857 291.951 127.482 293.588 136.798 292.236C146.213 290.87 166.877 285.683 173.802 283.915C174.664 283.695 175.326 284.604 174.835 285.346C170.403 292.048 154.886 313.022 134.768 312.118Z" stroke="#806767" stroke-width="7"/>
</g>
<defs>
<filter id="filter0_f_1_531" x="33" y="324" width="203" height="83" filterUnits="userSpaceOnUse" color-interpolation-filters="sRGB">
<feFlood flood-opacity="0" result="BackgroundImageFix"/>
<feBlend mode="normal" in="SourceGraphic" in2="BackgroundImageFix" result="shape"/>
<feGaussianBlur stdDeviation="19" result="effect1_foregroundBlur_1_531"/>
</filter>
<clipPath id="clip0_1_531">
<rect width="277" height="350" fill="white"/>
</clipPath>
</defs>
</svg>
